<svg width="16" height="16" viewBox="0 0 16 16" fill="none" xmlns="http://www.w3.org/2000/svg">
<g clip-path="url(#clip0_8_884)">
<mask id="mask0_8_884" style="mask-type:luminance" maskUnits="userSpaceOnUse" x="0" y="-1" width="16" height="18">
<path d="M14.8571 -0.163086H1.14286C0.511675 -0.163086 0 0.567878 0 1.46957V14.5308C0 15.4325 0.511675 16.1634 1.14286 16.1634H14.8571C15.4883 16.1634 16 15.4325 16 14.5308V1.46957C16 0.567878 15.4883 -0.163086 14.8571 -0.163086Z" fill="white"/>
</mask>
<g mask="url(#mask0_8_884)">
<path d="M14.8571 -0.163086H1.14286C0.511675 -0.163086 0 0.567878 0 1.46957V14.5308C0 15.4325 0.511675 16.1634 1.14286 16.1634H14.8571C15.4883 16.1634 16 15.4325 16 14.5308V1.46957C16 0.567878 15.4883 -0.163086 14.8571 -0.163086Z" fill="white"/>
<mask id="mask1_8_884" style="mask-type:alpha" maskUnits="userSpaceOnUse" x="0" y="-1" width="16" height="18">
<path d="M14.8571 -0.163086H1.14286C0.511675 -0.163086 0 0.567878 0 1.46957V14.5308C0 15.4325 0.511675 16.1634 1.14286 16.1634H14.8571C15.4883 16.1634 16 15.4325 16 14.5308V1.46957C16 0.567878 15.4883 -0.163086 14.8571 -0.163086Z" fill="white"/>
</mask>
<g mask="url(#mask1_8_884)">
<path fill-rule="evenodd" clip-rule="evenodd" d="M0 5.27909H16V-0.163086H0V5.27909Z" fill="#262626"/>
<g filter="url(#filter0_d_8_884)">
<path fill-rule="evenodd" clip-rule="evenodd" d="M0 10.7215H16V5.2793H0V10.7215Z" fill="#F01515"/>
</g>
<g filter="url(#filter1_d_8_884)">
<path fill-rule="evenodd" clip-rule="evenodd" d="M0 16.1634H16V10.7212H0V16.1634Z" fill="#FFD521"/>
</g>
</g>
</g>
</g>
<defs>
<filter id="filter0_d_8_884" x="0" y="5.2793" width="16" height="5.44238" filterUnits="userSpaceOnUse" color-interpolation-filters="sRGB">
<feFlood flood-opacity="0" result="BackgroundImageFix"/>
<feColorMatrix in="SourceAlpha" type="matrix" values="0 0 0 0 0 0 0 0 0 0 0 0 0 0 0 0 0 0 127 0" result="hardAlpha"/>
<feOffset/>
<feColorMatrix type="matrix" values="0 0 0 0 0 0 0 0 0 0 0 0 0 0 0 0 0 0 0.06 0"/>
<feBlend mode="normal" in2="BackgroundImageFix" result="effect1_dropShadow_8_884"/>
<feBlend mode="normal" in="SourceGraphic" in2="effect1_dropShadow_8_884" result="shape"/>
</filter>
<filter id="filter1_d_8_884" x="0" y="10.7212" width="16" height="5.44238" filterUnits="userSpaceOnUse" color-interpolation-filters="sRGB">
<feFlood flood-opacity="0" result="BackgroundImageFix"/>
<feColorMatrix in="SourceAlpha" type="matrix" values="0 0 0 0 0 0 0 0 0 0 0 0 0 0 0 0 0 0 127 0" result="hardAlpha"/>
<feOffset/>
<feColorMatrix type="matrix" values="0 0 0 0 0 0 0 0 0 0 0 0 0 0 0 0 0 0 0.06 0"/>
<feBlend mode="normal" in2="BackgroundImageFix" result="effect1_dropShadow_8_884"/>
<feBlend mode="normal" in="SourceGraphic" in2="effect1_dropShadow_8_884" result="shape"/>
</filter>
<clipPath id="clip0_8_884">
<rect width="16" height="16" rx="8" fill="white"/>
</clipPath>
</defs>
</svg>
