<svg width="18" height="17" viewBox="0 0 18 17" fill="none" xmlns="http://www.w3.org/2000/svg">
<path d="M9.00008 14.2752L4.85008 16.7752C4.66675 16.8919 4.47508 16.9419 4.27508 16.9252C4.07508 16.9085 3.90008 16.8419 3.75008 16.7252C3.60008 16.6085 3.48342 16.4629 3.40008 16.2882C3.31675 16.1135 3.30008 15.9175 3.35008 15.7002L4.45008 10.9752L0.775085 7.8002C0.608418 7.6502 0.504418 7.4792 0.463085 7.2872C0.421751 7.0952 0.434085 6.90786 0.500085 6.7252C0.566085 6.54253 0.666085 6.39253 0.800085 6.2752C0.934085 6.15786 1.11742 6.08286 1.35008 6.0502L6.20008 5.6252L8.07508 1.1752C8.15842 0.975195 8.28775 0.825195 8.46309 0.725195C8.63842 0.625195 8.81742 0.575195 9.00008 0.575195C9.18275 0.575195 9.36175 0.625195 9.53708 0.725195C9.71242 0.825195 9.84175 0.975195 9.92509 1.1752L11.8001 5.6252L16.6501 6.0502C16.8834 6.08353 17.0668 6.15853 17.2001 6.2752C17.3334 6.39186 17.4334 6.54186 17.5001 6.7252C17.5668 6.90853 17.5794 7.0962 17.5381 7.2882C17.4967 7.4802 17.3924 7.65086 17.2251 7.8002L13.5501 10.9752L14.6501 15.7002C14.7001 15.9169 14.6834 16.1129 14.6001 16.2882C14.5168 16.4635 14.4001 16.6092 14.2501 16.7252C14.1001 16.8412 13.9251 16.9079 13.7251 16.9252C13.5251 16.9425 13.3334 16.8925 13.1501 16.7752L9.00008 14.2752Z" fill="#EBB105"/>
</svg>
