<svg width="20" height="20" viewBox="0 0 20 20" fill="none" xmlns="http://www.w3.org/2000/svg">
<path d="M4.16675 10.0002V3.3335M15.8334 16.6668V14.1668M4.16675 16.6668V13.3335M15.8334 10.8335V3.3335M10.0001 5.8335V3.3335M10.0001 16.6668V9.16683" stroke="black" stroke-linecap="round"/>
<path d="M4.16667 13.3333C5.08714 13.3333 5.83333 12.5871 5.83333 11.6667C5.83333 10.7462 5.08714 10 4.16667 10C3.24619 10 2.5 10.7462 2.5 11.6667C2.5 12.5871 3.24619 13.3333 4.16667 13.3333Z" stroke="black" stroke-linecap="round"/>
<path d="M9.99992 9.16683C10.9204 9.16683 11.6666 8.42064 11.6666 7.50016C11.6666 6.57969 10.9204 5.8335 9.99992 5.8335C9.07944 5.8335 8.33325 6.57969 8.33325 7.50016C8.33325 8.42064 9.07944 9.16683 9.99992 9.16683Z" stroke="black" stroke-linecap="round"/>
<path d="M15.8334 14.1668C16.7539 14.1668 17.5001 13.4206 17.5001 12.5002C17.5001 11.5797 16.7539 10.8335 15.8334 10.8335C14.9129 10.8335 14.1667 11.5797 14.1667 12.5002C14.1667 13.4206 14.9129 14.1668 15.8334 14.1668Z" stroke="black" stroke-linecap="round"/>
</svg>
