<svg width="21" height="13" viewBox="0 0 21 13" fill="none" xmlns="http://www.w3.org/2000/svg">
<path d="M16.5 10.44V0.75C16.5 0.551088 16.421 0.360322 16.2803 0.21967C16.1397 0.0790175 15.9489 0 15.75 0C15.5511 0 15.3603 0.0790175 15.2197 0.21967C15.079 0.360322 15 0.551088 15 0.75V10.44L12.78 8.22C12.7113 8.14631 12.6285 8.08721 12.5365 8.04622C12.4445 8.00523 12.3452 7.98318 12.2445 7.98141C12.1438 7.97963 12.0438 7.99816 11.9504 8.03588C11.857 8.0736 11.7722 8.12974 11.701 8.20096C11.6297 8.27218 11.5736 8.35701 11.5359 8.4504C11.4982 8.54379 11.4796 8.64382 11.4814 8.74452C11.4832 8.84523 11.5052 8.94454 11.5462 9.03654C11.5872 9.12854 11.6463 9.21134 11.72 9.28L15.22 12.78C15.3606 12.9205 15.5512 12.9993 15.75 12.9993C15.9488 12.9993 16.1394 12.9205 16.28 12.78L19.78 9.28C19.8537 9.21134 19.9128 9.12854 19.9538 9.03654C19.9948 8.94454 20.0168 8.84523 20.0186 8.74452C20.0204 8.64382 20.0018 8.54379 19.9641 8.4504C19.9264 8.35701 19.8703 8.27218 19.799 8.20096C19.7278 8.12974 19.643 8.0736 19.5496 8.03588C19.4562 7.99816 19.3562 7.97963 19.2555 7.98141C19.1548 7.98318 19.0555 8.00523 18.9635 8.04622C18.8715 8.08721 18.7887 8.14631 18.72 8.22L16.5 10.44ZM0 1.25C0 1.05109 0.0790175 0.860322 0.21967 0.71967C0.360322 0.579018 0.551088 0.5 0.75 0.5H10.25C10.4489 0.5 10.6397 0.579018 10.7803 0.71967C10.921 0.860322 11 1.05109 11 1.25C11 1.44891 10.921 1.63968 10.7803 1.78033C10.6397 1.92098 10.4489 2 10.25 2H0.75C0.551088 2 0.360322 1.92098 0.21967 1.78033C0.0790175 1.63968 0 1.44891 0 1.25ZM0 6.25C0 6.05109 0.0790175 5.86032 0.21967 5.71967C0.360322 5.57902 0.551088 5.5 0.75 5.5H6.25C6.44891 5.5 6.63968 5.57902 6.78033 5.71967C6.92098 5.86032 7 6.05109 7 6.25C7 6.44891 6.92098 6.63968 6.78033 6.78033C6.63968 6.92098 6.44891 7 6.25 7H0.75C0.551088 7 0.360322 6.92098 0.21967 6.78033C0.0790175 6.63968 0 6.44891 0 6.25ZM0 11.25C0 11.0511 0.0790175 10.8603 0.21967 10.7197C0.360322 10.579 0.551088 10.5 0.75 10.5H4.25C4.44891 10.5 4.63968 10.579 4.78033 10.7197C4.92098 10.8603 5 11.0511 5 11.25C5 11.4489 4.92098 11.6397 4.78033 11.7803C4.63968 11.921 4.44891 12 4.25 12H0.75C0.551088 12 0.360322 11.921 0.21967 11.7803C0.0790175 11.6397 0 11.4489 0 11.25Z" fill="black"/>
</svg>
